#!OML:ASF F:\VICON\USERDATA\INSTALL\rory3\rory3.ASF
:FULLY-SPECIFIED
:DEGREES
1248
root 1.13438 15.319 -5.25592 -7.84249 -2.27274 2.6303
lowerback -6.90348 11.557 9.52018
upperback -2.31446 15.0013 -6.02252
thorax 5.39018 7.72265 -9.41041
lowerneck 3.93897 -7.9681 -14.2538
upperneck 49.0128 -2.50914 -15.5816
head 18.6834 -5.2174 -5.44974
rclavicle 8.78628e-014 -1.90833e-014
rhumerus 66.8689 -2.75462 -73.1515
rradius 146.551
rwrist -64.2022
rhand 0.881178 -39.8196
rfingers 7.12502
rthumb 26.4341 -67.9964
lclavicle 8.78628e-014 -1.90833e-014
lhumerus -59.2158 -13.9157 82.3567
lradius 35.3646
lwrist 20.8442
lhand -14.6743 -23.9996
lfingers 7.12502
lthumb 11.4789 5.66614
rfemur -12.8979 -33.3043 17.8576
rtibia 66.8506
rfoot -48.3095 -37.6405
rtoes 9.03443
lfemur -33.4394 -20.0186 -5.01643
ltibia 23.9454
lfoot 8.70523 -6.63711
ltoes -15.5249
1249
root 1.13219 15.3205 -5.2597 -7.91753 -2.26608 2.59459
lowerback -6.8392 11.5245 9.50596
upperback -2.26995 14.961 -5.96613
thorax 5.37333 7.70221 -9.36116
lowerneck 3.92243 -7.93775 -14.2048
upperneck 48.935 -2.44186 -15.6618
head 18.6335 -5.18585 -5.47574
rclavicle -9.06458e-014 9.54166e-015
rhumerus 66.8406 -2.71547 -73.1128
rradius 146.646
rwrist -64.166
rhand 0.79941 -39.887
rfingers 7.12502
rthumb 26.3558 -68.0754
lclavicle -9.06458e-014 9.54166e-015
lhumerus -59.0718 -13.7019 82.1432
lradius 35.2489
lwrist 20.9382
lhand -14.5543 -23.6766
lfingers 7.12502
lthumb 11.5946 5.98264
rfemur -12.8095 -33.3281 17.8721
rtibia 66.8071
rfoot -48.0289 -38.0033
rtoes 8.60844
lfemur -33.3568 -19.9729 -5.02399
ltibia 23.9481
lfoot 8.68498 -6.72379
ltoes -15.4024
1250
root 1.12904 15.3207 -5.2609 -8.04837 -2.28502 2.47336
lowerback -6.73789 11.4888 9.5769
upperback -2.21725 14.9124 -5.8803
thorax 5.356 7.67906 -9.33303
lowerneck 3.86427 -7.90162 -14.1548
upperneck 48.8968 -2.36298 -15.7151
head 18.6224 -5.14896 -5.4977
rclavicle -4.85035e-014 7.95139e-015
rhumerus 66.9437 -2.7464 -73.2024
rradius 146.572
rwrist -64.3014
rhand 0.70019 -40.0995
rfingers 7.12502
rthumb 26.2609 -68.3021
lclavicle -4.85035e-014 7.95139e-015
lhumerus -58.9843 -13.5197 81.9947
lradius 35.1639
lwrist 21.0678
lhand -14.802 -23.6231
lfingers 7.12502
lthumb 11.3558 6.0494
rfemur -12.6453 -33.2903 17.9739
rtibia 66.7669
rfoot -47.8158 -38.2681
rtoes 8.32707
lfemur -33.2042 -19.9878 -4.92386
ltibia 23.9314
lfoot 8.69437 -6.73502
ltoes -15.2017
1251
root 1.12769 15.3194 -5.26221 -8.12714 -2.30124 2.41418
lowerback -6.59562 11.4736 9.64708
upperback -2.2317 14.8995 -5.87624
thorax 5.27541 7.67158 -9.39799
lowerneck 3.82839 -7.86834 -14.1387
upperneck 48.9343 -2.3327 -15.6376
head 18.6569 -5.12775 -5.46705
rclavicle -1.16885e-013 -1.11319e-014
rhumerus 67.063 -2.94015 -73.4261
rradius 146.391
rwrist -64.5565
rhand 0.71338 -40.1693
rfingers 7.12502
rthumb 26.2735 -68.37
lclavicle -1.16885e-013 -1.11319e-014
lhumerus -59.0596 -13.5777 81.9916
lradius 35.2643
lwrist 21.1293
lhand -15.2648 -23.6486
lfingers 7.12502
lthumb 10.9094 6.04798
rfemur -12.5465 -33.2278 18.0179
rtibia 66.7725
rfoot -47.9317 -38.0927
rtoes 8.52658
lfemur -33.1178 -20.0067 -4.87229
ltibia 23.9084
lfoot 8.71787 -6.72207
ltoes -15.4332
1252
root 1.1279 15.3174 -5.2648 -8.15891 -2.22596 2.50855
lowerback -6.52288 11.4391 9.54057
upperback -2.23289 14.8685 -5.91317
thorax 5.21027 7.65345 -9.4044
lowerneck 3.76165 -7.85133 -14.1539
upperneck 48.9694 -2.30345 -15.5897
head 18.7018 -5.11571 -5.44887
rclavicle 7.07673e-014 -1.59028e-014
rhumerus 67.0385 -2.92066 -73.5003
rradius 146.329
rwrist -64.6089
rhand 0.842667 -40.0735
rfingers 7.12502
rthumb 26.3973 -68.2558
lclavicle 7.07673e-014 -1.59028e-014
lhumerus -59.1589 -13.663 82.0105
lradius 35.4439
lwrist 21.0298
lhand -15.2824 -24.1164
lfingers 7.12502
lthumb 10.8923 5.58104
rfemur -12.5046 -33.265 17.8634
rtibia 66.8214
rfoot -48.121 -37.7356
rtoes 8.7301
lfemur -33.0979 -19.9968 -5.02219
ltibia 23.8864
lfoot 8.68404 -6.78997
ltoes -15.8237
1253
root 1.1312 15.315 -5.26693 -8.11609 -2.16246 2.63679
lowerback -6.56701 11.412 9.39956
upperback -2.22823 14.8387 -5.93969
thorax 5.20453 7.63627 -9.35768
lowerneck 3.56344 -7.81067 -14.1655
upperneck 49.0302 -2.18219 -15.5851
head 18.8063 -5.07125 -5.45722
rclavicle -6.67916e-014 -1.11319e-014
rhumerus 66.8548 -2.6226 -73.3619
rradius 146.421
rwrist -64.335
rhand 0.892484 -39.8802
rfingers 7.12502
rthumb 26.4449 -68.0553
lclavicle -6.67916e-014 -1.11319e-014
lhumerus -59.1696 -13.6466 81.9904
lradius 35.416
lwrist 20.7845
lhand -14.8635 -25.2158
lfingers 7.12502
lthumb 11.2964 4.46001
rfemur -12.5834 -33.3206 17.7072
rtibia 66.8913
rfoot -48.1737 -37.4655
rtoes 8.35615
lfemur -33.1509 -20.0209 -5.16331
ltibia 23.8523
lfoot 8.68116 -6.78978
ltoes -15.6683
1254
root 1.13537 15.3132 -5.26903 -8.05915 -2.19443 2.68062
lowerback -6.63176 11.4201 9.36457
upperback -2.21824 14.8457 -5.92761
thorax 5.24046 7.63974 -9.31122
lowerneck 3.48241 -7.76463 -14.1889
upperneck 49.0321 -2.08422 -15.5841
head 18.8391 -5.03415 -5.44814
rclavicle 7.4743e-014 2.06736e-014
rhumerus 66.7832 -2.46155 -73.2452
rradius 146.503
rwrist -64.1252
rhand 0.778802 -39.7681
rfingers 7.12502
rthumb 26.3361 -67.9596
lclavicle 7.4743e-014 2.06736e-014
lhumerus -59.228 -13.6799 82.0272
lradius 35.4216
lwrist 20.8409
lhand -14.0503 -26.1441
lfingers 7.12502
lthumb 12.0806 3.48719
rfemur -12.7198 -33.3137 17.6939
rtibia 66.9477
rfoot -48.2183 -37.4982
rtoes 8.11231
lfemur -33.2098 -20.0205 -5.17634
ltibia 23.8101
lfoot 8.77889 -6.73892
ltoes -15.1688
1255
root 1.13817 15.3118 -5.27187 -8.07515 -2.21199 2.62688
lowerback -6.67656 11.4504 9.43901
upperback -2.16221 14.8764 -5.88605
thorax 5.33998 7.66114 -9.28292
lowerneck 3.63127 -7.7513 -14.1118
upperneck 48.9559 -2.0812 -15.6556
head 18.7394 -5.01848 -5.46886
rclavicle -4.45278e-014 -4.77083e-015
rhumerus 66.8113 -2.51868 -73.214
rradius 146.53
rwrist -64.1548
rhand 0.662162 -39.9978
rfingers 7.12502
rthumb 26.2245 -68.2059
lclavicle -4.45278e-014 -4.77083e-015
lhumerus -59.1005 -13.6863 82.0293
lradius 35.3435
lwrist 20.9925
lhand -13.0246 -26.6386
lfingers 7.12502
lthumb 13.0695 2.93191
rfemur -12.7409 -33.3191 17.7491
rtibia 66.973
rfoot -48.2091 -37.6689
rtoes 8.61014
lfemur -33.1983 -19.9976 -5.1288
ltibia 23.7718
lfoot 8.85972 -6.73668
ltoes -15.0043
1256
root 1.13926 15.3107 -5.27594 -8.11936 -2.09203 2.57488
lowerback -6.60206 11.4325 9.49352
upperback -2.16837 14.8556 -5.88844
thorax 5.30156 7.6511 -9.33406
lowerneck 3.7357 -7.74717 -14.086
upperneck 48.9693 -2.10478 -15.6298
head 18.7167 -5.01849 -5.45676
rclavicle -5.92378e-014 -3.81667e-014
rhumerus 66.6803 -2.55244 -73.2426
rradius 146.562
rwrist -64.2076
rhand 0.590418 -40.0927
rfingers 7.12502
rthumb 26.1558 -68.311
lclavicle -5.92378e-014 -3.81667e-014
lhumerus -59.0208 -13.7457 82.0324
lradius 35.2725
lwrist 20.9633
lhand -12.6075 -26.594
lfingers 7.12502
lthumb 13.4715 2.95037
rfemur -12.6754 -33.4329 17.7499
rtibia 66.9788
rfoot -48.1677 -37.7563
rtoes 9.01896
lfemur -33.1625 -19.9797 -5.15481
ltibia 23.7291
lfoot 8.85711 -6.90659
ltoes -15.2203
1257
root 1.13949 15.3111 -5.27908 -8.15801 -2.00007 2.60628
lowerback -6.47064 11.3813 9.42485
upperback -2.23469 14.8012 -5.89688
thorax 5.12957 7.61417 -9.35432
lowerneck 3.75082 -7.72856 -14.2528
upperneck 49.0174 -2.1023 -15.5097
head 18.7648 -5.03718 -5.38071
rclavicle 1.11319e-014 -4.13472e-014
rhumerus 66.5184 -2.44458 -73.3069
rradius 146.56
rwrist -64.2428
rhand 0.54827 -40.1121
rfingers 7.12502
rthumb 26.1154 -68.3363
lclavicle 1.11319e-014 -4.13472e-014
lhumerus -59.4331 -13.9515 82.1704
lradius 35.6087
lwrist 21.0928
lhand -12.5424 -26.3485
lfingers 7.12502
lthumb 13.5342 3.19169
rfemur -12.6207 -33.5193 17.6647
rtibia 66.9823
rfoot -48.0687 -37.8222
rtoes 8.85129
lfemur -33.1272 -20.0024 -5.2413
ltibia 23.7064
lfoot 8.85379 -7.03467
ltoes -15.3646
1258
root 1.14307 15.3109 -5.27935 -8.12955 -2.01033 2.72219
lowerback -6.60661 11.4188 9.29931
upperback -2.22308 14.8482 -5.90421
thorax 5.19909 7.63704 -9.25785
lowerneck 3.87159 -7.73312 -14.27
upperneck 48.9949 -2.14142 -15.4952
head 18.717 -5.0507 -5.36208
rclavicle -1.24042e-013 4.77083e-015
rhumerus 66.4756 -2.42332 -73.3009
rradius 146.513
rwrist -64.2906
rhand 0.649538 -40.0908
rfingers 7.12502
rthumb 26.2124 -68.3007
lclavicle -1.24042e-013 4.77083e-015
lhumerus -59.5176 -14.0354 82.2744
lradius 35.6718
lwrist 21.1596
lhand -12.3165 -26.4721
lfingers 7.12502
lthumb 13.752 3.05348
rfemur -12.6468 -33.5234 17.5044
rtibia 67.0106
rfoot -48.2954 -37.5049
rtoes 9.04056
lfemur -33.1734 -20.0701 -5.33501
ltibia 23.7122
lfoot 8.89199 -6.92301
ltoes -15.3098
